<?xml version="1.0" standalone="no"?>
<!DOCTYPE svg PUBLIC "-//W3C//DTD SVG 20010904//EN"
 "http://www.w3.org/TR/2001/REC-SVG-20010904/DTD/svg10.dtd">
<svg version="1.0" xmlns="http://www.w3.org/2000/svg"
 width="96.000000pt" height="96.000000pt" viewBox="0 0 96.000000 96.000000"
 preserveAspectRatio="xMidYMid meet">

<g transform="translate(0.000000,96.000000) scale(0.100000,-0.100000)"
fill="#000000" stroke="none">
<path d="M553 845 c-26 -18 -40 -59 -49 -147 l-6 -67 -52 -12 c-69 -16 -97
-31 -134 -73 -92 -105 -41 -271 89 -290 104 -16 99 -13 99 -61 0 -49 -19 -75
-54 -75 -28 0 -46 18 -46 46 0 31 -25 50 -46 33 -32 -26 11 -102 66 -112 40
-9 98 10 115 37 9 13 18 46 22 74 5 48 7 50 42 56 44 7 86 48 96 93 13 65 -57
163 -117 163 -15 0 -18 9 -18 49 0 47 2 50 44 75 54 32 80 81 71 136 -11 65
-78 107 -122 75z m55 -37 c20 -20 15 -102 -9 -132 -11 -14 -25 -26 -30 -26
-10 0 -13 153 -2 163 10 11 28 8 41 -5z m-108 -263 c0 -23 -5 -35 -14 -35 -24
0 -64 -40 -76 -76 -10 -30 -10 -39 3 -52 22 -22 47 0 47 42 0 30 15 56 32 56
4 0 8 -45 8 -100 0 -113 -1 -115 -76 -81 -58 27 -84 63 -84 121 0 61 31 108
90 138 61 30 70 29 70 -13z m110 -115 c13 -24 13 -86 0 -110 -6 -11 -19 -24
-30 -30 -19 -10 -20 -7 -20 85 0 92 1 95 20 85 11 -6 24 -19 30 -30z"/>
</g>
</svg>
